<?xml version="1.0" encoding="UTF-8"?>
<svg id="_图层_1" data-name="图层 1" xmlns="http://www.w3.org/2000/svg" viewBox="0 0 100 100">
  <defs>
    <style>
      .cls-1 {
        fill: #e60012;
      }
    </style>
  </defs>
  <path class="cls-1" d="m26.43,10.24h12.61c8.27,0,15.04,1.79,20.29,5.39,5.24,3.6,7.86,8.14,7.86,13.64,0,6.71-3.88,12.29-11.61,16.79,12,4.01,17.98,10.93,17.98,20.8,0,6.86-3.09,12.4-9.27,16.6-6.18,4.2-14.45,6.31-24.82,6.31h-13.04V10.24h0Zm10.74,9.61v23.52c5.99-.09,10.57-1.21,13.77-3.43,3.17-2.19,4.77-5.24,4.77-9.12,0-3.37-1.43-6.05-4.3-8.08-2.88-2.02-6.73-3.03-11.55-3.03-1.04,0-1.94.04-2.68.13h0Zm0,32.96v27.21h.87c9.35,0,15.75-1.49,19.16-4.5,3.41-3,5.11-6.05,5.11-9.18,0-4.11-1.9-7.39-5.73-9.87-3.84-2.45-9.08-3.66-15.73-3.66h-3.69Z"/>
</svg>